<svg viewBox="0 0 225 37" xmlns="http://www.w3.org/2000/svg" height="37" role="presentation"><path d="M16.55 0l15.2 36h-3.9l-4.8-11.35H8.4L3.35 36H.65l15.9-36zm-.6 7.75L9.45 22.3H22.1L15.95 7.75zM48.4 36V1h10.85c8.65 0 17.8 4.65 17.8 17.3C77.05 30.2 66.9 36 58.5 36H48.4zm9.5-32.75h-5.85v30.5h6.25c8.15 0 14.6-4.8 14.6-14.95 0-9-5.15-15.55-15-15.55zM104.5 37l15.45-36h-2.75l-12.1 28.15L93.35 1H89.4l15.1 36zm31.85-1H140V1h-3.65v35zm51.5-9.9c-2.5 4.45-6.95 7.05-12 7.05-7.75 0-13.5-6.8-13.5-15.75 0-8.75 5.45-14.75 11.95-14.75 4.85 0 8.1 2.6 8.7 7.3l4.25-.55C186.9 4 181.55.35 175.4.35c-8.8 0-16.75 6.9-16.75 18.5 0 11.15 7.65 17.8 16.25 17.8 6 0 12-3.2 12.95-10.55zm18.4 9.9h18.4v-2.55H209.9V18.7h11.8v-2.4h-11.8V3.55h14.35V1h-18v35z" fill="#222" fill-rule="evenodd"/></svg>
