<svg viewBox="0 0 231 37" xmlns="http://www.w3.org/2000/svg" height="37" role="presentation"><path d="M7.85 36H.45V1H8.5c6.35 0 9.85 2.7 9.85 7.7 0 4.6-4.3 7.9-8.05 8.4 6.8.1 10.3 3.55 10.3 8.45C20.6 31.95 14.8 36 7.85 36zM7.7 3.25H4.1v13h2.75c4.6 0 7.45-2.7 7.45-6.75 0-4.2-2.4-6.25-6.6-6.25zm.45 15.15H4.1v15.35h3.65c5.9 0 8.75-3.6 8.75-8 0-4.7-3.85-7.35-8.35-7.35zM39.25 36h18.4v-2.55H42.9V18.7h11.8v-2.4H42.9V3.55h14.35V1h-18v35zM87.9 0l15.2 36h-3.9l-4.8-11.35H79.75L74.7 36H72L87.9 0zm-.6 7.75L80.8 22.3h12.65L87.3 7.75zm31.5 15.8c0 9.5 5.6 13.1 12.85 13.1 7.9 0 13-4.45 13-14.7V1h-2.75v21.4c0 8.1-3.9 11.25-9.75 11.25-7.15 0-9.75-4-9.75-12.05V1h-3.6v22.55zm42.5-20h11.45V36h3.6V3.55h11.45V1h-26.5v2.55zM213.7 36h3.65V20.5L230.55 1h-3.2L216 17.65 204.75 1h-4.4l13.35 19.5V36z" fill="#222" fill-rule="evenodd"/></svg>
