<svg viewBox="0 0 199 37" xmlns="http://www.w3.org/2000/svg" height="37" role="presentation"><path d="M7.4 36H0V1h8.05c6.35 0 9.85 2.7 9.85 7.7 0 4.6-4.3 7.9-8.05 8.4 6.8.1 10.3 3.55 10.3 8.45 0 6.4-5.8 10.45-12.75 10.45zM7.25 3.25h-3.6v13H6.4c4.6 0 7.45-2.7 7.45-6.75 0-4.2-2.4-6.25-6.6-6.25zM7.7 18.4H3.65v15.35H7.3c5.9 0 8.75-3.6 8.75-8 0-4.7-3.85-7.35-8.35-7.35zM53.5.35c9.15 0 17 6.9 17 18.3 0 10.95-8.4 18-17.35 18-9.15 0-17-6.95-17-18.35C36.15 7.4 44.55.35 53.5.35zm-.85 2.25c-7.1 0-12.35 6-12.35 15.35 0 10.05 6.3 16.4 13.5 16.4 7.15 0 12.55-5.9 12.55-15.3C66.35 8.9 60 2.6 52.65 2.6zm51.2-2.25c9.15 0 17 6.9 17 18.3 0 10.95-8.4 18-17.35 18-9.15 0-17-6.95-17-18.35C86.5 7.4 94.9.35 103.85.35zM103 2.6c-7.1 0-12.35 6-12.35 15.35 0 10.05 6.3 16.4 13.5 16.4 7.15 0 12.55-5.9 12.55-15.3C116.7 8.9 110.35 2.6 103 2.6zM138.5 36h3.65V22.6l3.85-4.4L158 36h4.4l-13.95-20.55L161.25 1h-3.45l-15.65 17.75V1h-3.65v35zM188.6.35c-6.4 0-10 4.3-10 8.5 0 3.55 2.3 6.65 5.9 8.95l4.35 2.7c4.35 2.7 6.15 4.65 6.15 7.8 0 3.45-2.7 6.25-6.75 6.25-5.55 0-7.15-3.7-7.25-8.15l-4.15.5c-.15 5.5 3.75 9.7 10.65 9.7 6 0 11.3-3.85 11.3-9.25 0-4.5-3.1-6.9-7.25-9.5l-3.7-2.3c-3.7-2.25-5.6-4.5-5.6-7.5 0-3.05 1.9-5.65 5.7-5.65 4.25 0 5.8 3.2 5.85 6.35l4.15-.5c0-4.25-3.6-7.9-9.35-7.9z" fill="#222" fill-rule="evenodd"/></svg>
