<svg viewBox="0 0 329 37" xmlns="http://www.w3.org/2000/svg" height="37" role="presentation"><path d="M29.2 26.1c-2.5 4.45-6.95 7.05-12 7.05-7.75 0-13.5-6.8-13.5-15.75 0-8.75 5.45-14.75 11.95-14.75 4.85 0 8.1 2.6 8.7 7.3l4.25-.55C28.25 4 22.9.35 16.75.35 7.95.35 0 7.25 0 18.85 0 30 7.65 36.65 16.25 36.65c6 0 12-3.2 12.95-10.55zM47.6 36H66v-2.55H51.25V18.7h11.8v-2.4h-11.8V3.55H65.6V1h-18v35zM85 36h18.5v-2.6H88.65V1H85v35zm36.25 0h18.4v-2.55H124.9V18.7h11.8v-2.4h-11.8V3.55h14.35V1h-18v35zm44.8 0h-7.4V1h8.05c6.35 0 9.85 2.7 9.85 7.7 0 4.6-4.3 7.9-8.05 8.4 6.8.1 10.3 3.55 10.3 8.45 0 6.4-5.8 10.45-12.75 10.45zm-.15-32.75h-3.6v13h2.75c4.6 0 7.45-2.7 7.45-6.75 0-4.2-2.4-6.25-6.6-6.25zm.45 15.15h-4.05v15.35h3.65c5.9 0 8.75-3.6 8.75-8 0-4.7-3.85-7.35-8.35-7.35zM221.5 36H217l-10.75-15.15c-1.05.15-1.85.2-2.95.2-.5 0-.7 0-2.2-.05v15h-3.65V1h8.05c6.25 0 11.2 2.75 11.2 9.3 0 4.65-2.9 7.85-6.75 9.5L221.5 36zM204.75 3.25h-3.65V18.8c1.25.05 1.8.05 2.2.05 6.1 0 9.35-3.6 9.35-8.15 0-4.9-3.05-7.45-7.9-7.45zM238.45 36h3.65V1h-3.65v35zM259.3 3.55h11.45V36h3.6V3.55h11.45V1h-26.5v2.55zM311.7 36h3.65V20.5L328.55 1h-3.2L314 17.65 302.75 1h-4.4l13.35 19.5V36z" fill="#222" fill-rule="evenodd"/></svg>
