<svg viewBox="0 0 273 37" xmlns="http://www.w3.org/2000/svg" height="37" role="presentation"><path d="M29.4 26.1c-2.5 4.45-6.95 7.05-12 7.05-7.75 0-13.5-6.8-13.5-15.75 0-8.75 5.45-14.75 11.95-14.75 4.85 0 8.1 2.6 8.7 7.3l4.25-.55C28.45 4 23.1.35 16.95.35 8.15.35.2 7.25.2 18.85c0 11.15 7.65 17.8 16.25 17.8 6 0 12-3.2 12.95-10.55zm17.85-2.55c0 9.5 5.6 13.1 12.85 13.1 7.9 0 13-4.45 13-14.7V1h-2.75v21.4c0 8.1-3.9 11.25-9.75 11.25-7.15 0-9.75-4-9.75-12.05V1h-3.6v22.55zM93.85 36h18.5v-2.6H97.5V1h-3.65v35zM122.5 3.55h11.45V36h3.6V3.55H149V1h-26.5v2.55zm43.15 20c0 9.5 5.6 13.1 12.85 13.1 7.9 0 13-4.45 13-14.7V1h-2.75v21.4c0 8.1-3.9 11.25-9.75 11.25-7.15 0-9.75-4-9.75-12.05V1h-3.6v22.55zM236.3 36h-4.5l-10.75-15.15c-1.05.15-1.85.2-2.95.2-.5 0-.7 0-2.2-.05v15h-3.65V1h8.05c6.25 0 11.2 2.75 11.2 9.3 0 4.65-2.9 7.85-6.75 9.5L236.3 36zM219.55 3.25h-3.65V18.8c1.25.05 1.8.05 2.2.05 6.1 0 9.35-3.6 9.35-8.15 0-4.9-3.05-7.45-7.9-7.45zM254.25 36h18.4v-2.55H257.9V18.7h11.8v-2.4h-11.8V3.55h14.35V1h-18v35z" fill="#222" fill-rule="evenodd"/></svg>
