<svg viewBox="0 0 269 37" xmlns="http://www.w3.org/2000/svg" height="37" role="presentation"><path d="M.6 36h3.65V18.7h11.8v-2.4H4.25V3.55H18.6V1H.6v35zM45.4 0l15.2 36h-3.9l-4.8-11.35H37.25L32.2 36h-2.7L45.4 0zm-.6 7.75L38.3 22.3h12.65L44.8 7.75zM86.1.35c-6.4 0-10 4.3-10 8.5 0 3.55 2.3 6.65 5.9 8.95l4.35 2.7c4.35 2.7 6.15 4.65 6.15 7.8 0 3.45-2.7 6.25-6.75 6.25-5.55 0-7.15-3.7-7.25-8.15l-4.15.5c-.15 5.5 3.75 9.7 10.65 9.7 6 0 11.3-3.85 11.3-9.25 0-4.5-3.1-6.9-7.25-9.5l-3.7-2.3c-3.7-2.25-5.6-4.5-5.6-7.5 0-3.05 1.9-5.65 5.7-5.65 4.25 0 5.8 3.2 5.85 6.35l4.15-.5c0-4.25-3.6-7.9-9.35-7.9zM139.4 36h3.65V1h-3.65v15.75h-20.6V1h-3.65v35h3.65V19.2h20.6V36zm24.95 0H168V1h-3.65v35zM204 .35c9.15 0 17 6.9 17 18.3 0 10.95-8.4 18-17.35 18-9.15 0-17-6.95-17-18.35 0-10.9 8.4-17.95 17.35-17.95zm-.85 2.25c-7.1 0-12.35 6-12.35 15.35 0 10.05 6.3 16.4 13.5 16.4 7.15 0 12.55-5.9 12.55-15.3 0-10.15-6.35-16.45-13.7-16.45zm36.5 33.4h2.75V8.4L268.35 37V1h-2.75v27.55L239.65 0v36z" fill="#222" fill-rule="evenodd"/></svg>
