<svg viewBox="0 0 495 29" xmlns="http://www.w3.org/2000/svg" height="28" role="presentation"><path d="M18.788 28h2.774V1.4h-2.774v11.97H3.132V1.4H.358V28h2.774V15.232h15.656V28zm19.362 0h13.984v-1.938h-11.21v-11.21h8.968v-1.824h-8.968v-9.69H51.83V1.4H38.15V28zM75.524.64L87.076 28h-2.964l-3.648-8.626H69.33L65.492 28H63.44L75.524.64zm-.456 5.89l-4.94 11.058h9.614L75.068 6.53zM100.13 28h14.06v-1.976h-11.286V1.4h-2.774V28zm22.174-24.662h8.702V28h2.736V3.338h8.702V1.4h-20.14v1.938zM174.346 28h2.774V1.4h-2.774v11.97H158.69V1.4h-2.774V28h2.774V15.232h15.656V28zm37.7.456c-4.56 0-7.22-3.002-7.22-6.65 0-3.724 2.774-6.688 7.448-7.98l-.266-.304c-1.71-1.938-2.926-3.838-2.926-6.346 0-3.458 2.698-6.27 6.954-6.27 3.838 0 6.688 2.356 6.688 6.156 0 3.23-2.85 5.928-7.182 6.726l5.13 5.434c1.444-1.292 3.724-2.546 6.802-2.546.228 0 .456 0 .684.038v2.85h-7.144L228.956 28h-3.458l-5.776-6.232c-.874 4.104-3.952 6.688-7.676 6.688zm.684-2.508c2.47 0 5.206-1.482 6.574-4.56l-6.536-7.03c-3.496 1.216-5.206 3.914-5.206 6.536 0 3.154 2.204 5.054 5.168 5.054zm-1.14-19.19c0 2.09.874 3.648 3.268 6.27l.266.304c3.116-.95 5.054-3.762 5.054-6.46 0-3.306-2.09-4.75-4.37-4.75-2.584 0-4.218 2.204-4.218 4.636zm51.608 22.002l5.586-12.996 5.358 12.996L285.884 1.4h-2.09l-9.158 21.47-4.484-10.45 4.75-11.02h-2.052l-3.724 8.588-3.61-8.588h-2.85l5.016 11.97-4.028 9.462L254.686 1.4h-2.964l11.476 27.36zm35.55-.76h13.984v-1.938h-11.21v-11.21h8.968v-1.824h-8.968v-9.69h10.906V1.4h-13.68V28zm28.824 0h14.06v-1.976h-11.286V1.4h-2.774V28zm27.95 0h14.06v-1.976h-11.286V1.4h-2.774V28zm27.95 0h2.09V7.024l19.722 21.736V1.4h-2.09v20.938L383.472.64V28zm38.4 0h13.984v-1.938h-11.21v-11.21h8.968v-1.824h-8.968v-9.69h10.906V1.4h-13.68V28zM457.422.906c-4.864 0-7.6 3.268-7.6 6.46 0 2.698 1.748 5.054 4.484 6.802l3.306 2.052c3.306 2.052 4.674 3.534 4.674 5.928 0 2.622-2.052 4.75-5.13 4.75-4.218 0-5.434-2.812-5.51-6.194l-3.154.38c-.114 4.18 2.85 7.372 8.094 7.372 4.56 0 8.588-2.926 8.588-7.03 0-3.42-2.356-5.244-5.51-7.22l-2.812-1.748c-2.812-1.71-4.256-3.42-4.256-5.7 0-2.318 1.444-4.294 4.332-4.294 3.23 0 4.408 2.432 4.446 4.826l3.154-.38c0-3.23-2.736-6.004-7.106-6.004zm29.394 0c-4.864 0-7.6 3.268-7.6 6.46 0 2.698 1.748 5.054 4.484 6.802l3.306 2.052c3.306 2.052 4.674 3.534 4.674 5.928 0 2.622-2.052 4.75-5.13 4.75-4.218 0-5.434-2.812-5.51-6.194l-3.154.38c-.114 4.18 2.85 7.372 8.094 7.372 4.56 0 8.588-2.926 8.588-7.03 0-3.42-2.356-5.244-5.51-7.22l-2.812-1.748c-2.812-1.71-4.256-3.42-4.256-5.7 0-2.318 1.444-4.294 4.332-4.294 3.23 0 4.408 2.432 4.446 4.826l3.154-.38c0-3.23-2.736-6.004-7.106-6.004z" fill="#222" fill-rule="evenodd"/></svg>
