<svg viewBox="0 0 424 29" xmlns="http://www.w3.org/2000/svg" height="28" role="presentation"><path d="M.518 28V1.4h8.246c6.574 0 13.528 3.534 13.528 13.148C22.292 23.592 14.578 28 8.194 28H.518zm7.22-24.89H3.292v23.18h4.75c6.194 0 11.096-3.648 11.096-11.362 0-6.84-3.914-11.818-11.4-11.818zM36.866 28H50.85v-1.938H39.64v-11.21h8.968v-1.824H39.64v-9.69h10.906V1.4h-13.68V28zM72.416.906c-4.864 0-7.6 3.268-7.6 6.46 0 2.698 1.748 5.054 4.484 6.802l3.306 2.052c3.306 2.052 4.674 3.534 4.674 5.928 0 2.622-2.052 4.75-5.13 4.75-4.218 0-5.434-2.812-5.51-6.194l-3.154.38c-.114 4.18 2.85 7.372 8.094 7.372 4.56 0 8.588-2.926 8.588-7.03 0-3.42-2.356-5.244-5.51-7.22l-2.812-1.748c-2.812-1.71-4.256-3.42-4.256-5.7 0-2.318 1.444-4.294 4.332-4.294 3.23 0 4.408 2.432 4.446 4.826l3.154-.38c0-3.23-2.736-6.004-7.106-6.004zM94.894 28h2.774V1.4h-2.774V28zm40.034 0V15.954l-2.774.342v6.878c-1.596 1.748-3.99 2.85-6.992 2.85-5.168 0-10.108-4.56-10.108-11.818 0-7.334 4.294-11.552 9.31-11.552 4.18 0 6.46 2.508 6.802 5.548l3.23-.418c-.532-4.104-3.99-6.878-9.538-6.878-5.814 0-12.616 4.864-12.616 13.832 0 8.74 5.624 13.756 11.324 13.756 4.066 0 6.764-1.862 8.664-4.56V28h2.698zm15.714 0h2.09V7.024l19.722 21.736V1.4h-2.09v20.938L150.642.64V28zm70.848 0h2.774V1.4h-2.774v11.97h-15.656V1.4h-2.774V28h2.774V15.232h15.656V28zm18.944-9.462c0 7.22 4.256 9.956 9.766 9.956 6.004 0 9.88-3.382 9.88-11.172V1.4h-2.09v16.264c0 6.156-2.964 8.55-7.41 8.55-5.434 0-7.41-3.04-7.41-9.158V1.4h-2.736v17.138zM276.25 28h2.09V7.024l19.722 21.736V1.4h-2.09v20.938L276.25.64V28zm35.284-24.662h8.702V28h2.736V3.338h8.702V1.4h-20.14v1.938zM345.146 28h2.774V1.4h-2.774V28zm19.362 0h2.09V7.024L386.32 28.76V1.4h-2.09v20.938L364.508.64V28zm59.072 0V15.954l-2.774.342v6.878c-1.596 1.748-3.99 2.85-6.992 2.85-5.168 0-10.108-4.56-10.108-11.818 0-7.334 4.294-11.552 9.31-11.552 4.18 0 6.46 2.508 6.802 5.548l3.23-.418c-.532-4.104-3.99-6.878-9.538-6.878-5.814 0-12.616 4.864-12.616 13.832 0 8.74 5.624 13.756 11.324 13.756 4.066 0 6.764-1.862 8.664-4.56V28h2.698z" fill="#222" fill-rule="evenodd"/></svg>
