<svg viewBox="0 0 383 29" xmlns="http://www.w3.org/2000/svg"><title>latest stories</title><path d="M.35 28h14.06v-1.976H3.124V1.4H.35V28zM37.002.64L48.554 28H45.59l-3.648-8.626H30.808L26.97 28h-2.052L37.002.64zm-.456 5.89l-4.94 11.058h9.614L36.546 6.53zM55.87 3.338h8.702V28h2.736V3.338h8.702V1.4H55.87v1.938zM89.482 28h13.984v-1.938h-11.21v-11.21h8.968v-1.824h-8.968v-9.69h10.906V1.4h-13.68V28zM125.032.906c-4.864 0-7.6 3.268-7.6 6.46 0 2.698 1.748 5.054 4.484 6.802l3.306 2.052c3.306 2.052 4.674 3.534 4.674 5.928 0 2.622-2.052 4.75-5.13 4.75-4.218 0-5.434-2.812-5.51-6.194l-3.154.38c-.114 4.18 2.85 7.372 8.094 7.372 4.56 0 8.588-2.926 8.588-7.03 0-3.42-2.356-5.244-5.51-7.22l-2.812-1.748c-2.812-1.71-4.256-3.42-4.256-5.7 0-2.318 1.444-4.294 4.332-4.294 3.23 0 4.408 2.432 4.446 4.826l3.154-.38c0-3.23-2.736-6.004-7.106-6.004zm18.982 2.432h8.702V28h2.736V3.338h8.702V1.4h-20.14v1.938zm54.02-2.432c-4.864 0-7.6 3.268-7.6 6.46 0 2.698 1.748 5.054 4.484 6.802l3.306 2.052c3.306 2.052 4.674 3.534 4.674 5.928 0 2.622-2.052 4.75-5.13 4.75-4.218 0-5.434-2.812-5.51-6.194l-3.154.38c-.114 4.18 2.85 7.372 8.094 7.372 4.56 0 8.588-2.926 8.588-7.03 0-3.42-2.356-5.244-5.51-7.22l-2.812-1.748c-2.812-1.71-4.256-3.42-4.256-5.7 0-2.318 1.444-4.294 4.332-4.294 3.23 0 4.408 2.432 4.446 4.826l3.154-.38c0-3.23-2.736-6.004-7.106-6.004zm18.982 2.432h8.702V28h2.736V3.338h8.702V1.4h-20.14v1.938zM260.85.906c6.954 0 12.92 5.244 12.92 13.908 0 8.322-6.384 13.68-13.186 13.68-6.954 0-12.92-5.282-12.92-13.946 0-8.284 6.384-13.642 13.186-13.642zm-.646 1.71c-5.396 0-9.386 4.56-9.386 11.666 0 7.638 4.788 12.464 10.26 12.464 5.434 0 9.538-4.484 9.538-11.628 0-7.714-4.826-12.502-10.412-12.502zM306.622 28h-3.42l-8.17-11.514c-.798.114-1.406.152-2.242.152-.38 0-.532 0-1.672-.038V28h-2.774V1.4h6.118c4.75 0 8.512 2.09 8.512 7.068 0 3.534-2.204 5.966-5.13 7.22L306.622 28zm-12.73-24.89h-2.774v11.818c.95.038 1.368.038 1.672.038 4.636 0 7.106-2.736 7.106-6.194 0-3.724-2.318-5.662-6.004-5.662zM319.904 28h2.774V1.4h-2.774V28zm19.362 0h13.984v-1.938h-11.21v-11.21h8.968v-1.824h-8.968v-9.69h10.906V1.4h-13.68V28zM374.816.906c-4.864 0-7.6 3.268-7.6 6.46 0 2.698 1.748 5.054 4.484 6.802l3.306 2.052c3.306 2.052 4.674 3.534 4.674 5.928 0 2.622-2.052 4.75-5.13 4.75-4.218 0-5.434-2.812-5.51-6.194l-3.154.38c-.114 4.18 2.85 7.372 8.094 7.372 4.56 0 8.588-2.926 8.588-7.03 0-3.42-2.356-5.244-5.51-7.22l-2.812-1.748c-2.812-1.71-4.256-3.42-4.256-5.7 0-2.318 1.444-4.294 4.332-4.294 3.23 0 4.408 2.432 4.446 4.826l3.154-.38c0-3.23-2.736-6.004-7.106-6.004z" fill="#222" fill-rule="evenodd"/></svg>