<svg viewBox="0 0 221 37" xmlns="http://www.w3.org/2000/svg" height="37" role="presentation"><path d="M32.85 36h3.65V0L18.9 31.05.45 0v36H3.2V11.55L18.3 37l14.55-25.5V36zM72.5.35c9.15 0 17 6.9 17 18.3 0 10.95-8.4 18-17.35 18-9.15 0-17-6.95-17-18.35C55.15 7.4 63.55.35 72.5.35zm-.85 2.25c-7.1 0-12.35 6-12.35 15.35 0 10.05 6.3 16.4 13.5 16.4 7.15 0 12.55-5.9 12.55-15.3C85.35 8.9 79 2.6 71.65 2.6zm36.5 33.4h2.75V8.4L136.85 37V1h-2.75v27.55L108.15 0v36zm50 0h18.4v-2.55H161.8V18.7h11.8v-2.4h-11.8V3.55h14.35V1h-18v35zm45.55 0h3.65V20.5L220.55 1h-3.2L206 17.65 194.75 1h-4.4l13.35 19.5V36z" fill="#222" fill-rule="evenodd"/></svg>
