<svg viewBox="0 0 452 37" xmlns="http://www.w3.org/2000/svg" height="37" role="presentation"><path d="M33.15 36h3.65V0L19.2 31.05.75 0v36H3.5V11.55L18.6 37l14.55-25.5V36zM71.8.35c9.15 0 17 6.9 17 18.3 0 10.95-8.4 18-17.35 18-9.15 0-17-6.95-17-18.35C54.45 7.4 62.85.35 71.8.35zm-.85 2.25c-7.1 0-12.35 6-12.35 15.35 0 10.05 6.3 16.4 13.5 16.4 7.15 0 12.55-5.9 12.55-15.3C84.65 8.9 78.3 2.6 70.95 2.6zm31.2.95h11.45V36h3.6V3.55h11.45V1h-26.5v2.55zM170.1 36h3.65V1h-3.65v15.75h-20.6V1h-3.65v35h3.65V19.2h20.6V36zm24.95 0h18.4v-2.55H198.7V18.7h11.8v-2.4h-11.8V3.55h14.35V1h-18v35zm61.45 0H252l-10.75-15.15c-1.05.15-1.85.2-2.95.2-.5 0-.7 0-2.2-.05v15h-3.65V1h8.05c6.25 0 11.2 2.75 11.2 9.3 0 4.65-2.9 7.85-6.75 9.5L256.5 36zM239.75 3.25h-3.65V18.8c1.25.05 1.8.05 2.2.05 6.1 0 9.35-3.6 9.35-8.15 0-4.9-3.05-7.45-7.9-7.45zM297.7 36h3.65V1h-3.65v15.75h-20.6V1h-3.65v35h3.65V19.2h20.6V36zM337.35.35c9.15 0 17 6.9 17 18.3 0 10.95-8.4 18-17.35 18-9.15 0-17-6.95-17-18.35C320 7.4 328.4.35 337.35.35zm-.85 2.25c-7.1 0-12.35 6-12.35 15.35 0 10.05 6.3 16.4 13.5 16.4 7.15 0 12.55-5.9 12.55-15.3 0-10.15-6.35-16.45-13.7-16.45zM387.7.35c9.15 0 17 6.9 17 18.3 0 10.95-8.4 18-17.35 18-9.15 0-17-6.95-17-18.35 0-10.9 8.4-17.95 17.35-17.95zm-.85 2.25c-7.1 0-12.35 6-12.35 15.35 0 10.05 6.3 16.4 13.5 16.4 7.15 0 12.55-5.9 12.55-15.3 0-10.15-6.35-16.45-13.7-16.45zm36.5 33.4V1h10.85c8.65 0 17.8 4.65 17.8 17.3 0 11.9-10.15 17.7-18.55 17.7h-10.1zm9.5-32.75H427v30.5h6.25c8.15 0 14.6-4.8 14.6-14.95 0-9-5.15-15.55-15-15.55z" fill="#222" fill-rule="evenodd"/></svg>
