<svg viewBox="0 0 229 37" xmlns="http://www.w3.org/2000/svg" height="37" role="presentation"><path d="M32.45 36h3.65V0L18.5 31.05.05 0v36H2.8V11.55L17.9 37l14.55-25.5V36zM71.1.35c9.15 0 17 6.9 17 18.3 0 10.95-8.4 18-17.35 18-9.15 0-17-6.95-17-18.35C53.75 7.4 62.15.35 71.1.35zm-.85 2.25c-7.1 0-12.35 6-12.35 15.35 0 10.05 6.3 16.4 13.5 16.4 7.15 0 12.55-5.9 12.55-15.3C83.95 8.9 77.6 2.6 70.25 2.6zm45.3 34.4L131 1h-2.75l-12.1 28.15L104.4 1h-3.95l15.1 36zm31.85-1h3.65V1h-3.65v35zm24.95 0h18.4v-2.55H176V18.7h11.8v-2.4H176V3.55h14.35V1h-18v35zM218.6.35c-6.4 0-10 4.3-10 8.5 0 3.55 2.3 6.65 5.9 8.95l4.35 2.7c4.35 2.7 6.15 4.65 6.15 7.8 0 3.45-2.7 6.25-6.75 6.25-5.55 0-7.15-3.7-7.25-8.15l-4.15.5c-.15 5.5 3.75 9.7 10.65 9.7 6 0 11.3-3.85 11.3-9.25 0-4.5-3.1-6.9-7.25-9.5l-3.7-2.3c-3.7-2.25-5.6-4.5-5.6-7.5 0-3.05 1.9-5.65 5.7-5.65 4.25 0 5.8 3.2 5.85 6.35l4.15-.5c0-4.25-3.6-7.9-9.35-7.9z" fill="#222" fill-rule="evenodd"/></svg>
