<svg viewBox="0 0 194 37" xmlns="http://www.w3.org/2000/svg" height="37" role="presentation"><path d="M32.6 36h3.65V0l-17.6 31.05L.2 0v36h2.75V11.55L18.05 37 32.6 11.5V36zM57 23.55c0 9.5 5.6 13.1 12.85 13.1 7.9 0 13-4.45 13-14.7V1H80.1v21.4c0 8.1-3.9 11.25-9.75 11.25-7.15 0-9.75-4-9.75-12.05V1H57v22.55zM112.7.35c-6.4 0-10 4.3-10 8.5 0 3.55 2.3 6.65 5.9 8.95l4.35 2.7c4.35 2.7 6.15 4.65 6.15 7.8 0 3.45-2.7 6.25-6.75 6.25-5.55 0-7.15-3.7-7.25-8.15l-4.15.5c-.15 5.5 3.75 9.7 10.65 9.7 6 0 11.3-3.85 11.3-9.25 0-4.5-3.1-6.9-7.25-9.5l-3.7-2.3c-3.7-2.25-5.6-4.5-5.6-7.5 0-3.05 1.9-5.65 5.7-5.65 4.25 0 5.8 3.2 5.85 6.35l4.15-.5c0-4.25-3.6-7.9-9.35-7.9zM141.75 36h3.65V1h-3.65v35zm51.5-9.9c-2.5 4.45-6.95 7.05-12 7.05-7.75 0-13.5-6.8-13.5-15.75 0-8.75 5.45-14.75 11.95-14.75 4.85 0 8.1 2.6 8.7 7.3l4.25-.55C192.3 4 186.95.35 180.8.35c-8.8 0-16.75 6.9-16.75 18.5 0 11.15 7.65 17.8 16.25 17.8 6 0 12-3.2 12.95-10.55z" fill="#222" fill-rule="evenodd"/></svg>
