<svg viewBox="0 0 278 37" xmlns="http://www.w3.org/2000/svg" height="37" role="presentation"><path d="M7.05 21.05H4.4V36H.75V1h8.7c6.2 0 11 2.9 11 9.35 0 6.85-6.45 10.7-13.4 10.7zM8.8 3.25H4.4V18.8h2.7c5.9 0 9.35-3.4 9.35-8.1 0-5-3.05-7.45-7.65-7.45zM52.15.35c9.15 0 17 6.9 17 18.3 0 10.95-8.4 18-17.35 18-9.15 0-17-6.95-17-18.35C34.8 7.4 43.2.35 52.15.35zM51.3 2.6c-7.1 0-12.35 6-12.35 15.35 0 10.05 6.3 16.4 13.5 16.4 7.15 0 12.55-5.9 12.55-15.3C65 8.9 58.65 2.6 51.3 2.6zM87.8 36h18.5v-2.6H91.45V1H87.8v35zm36.25 0h3.65V1h-3.65v35zM144.9 3.55h11.45V36h3.6V3.55h11.45V1h-26.5v2.55zM188.6 36h3.65V1h-3.65v35zm51.5-9.9c-2.5 4.45-6.95 7.05-12 7.05-7.75 0-13.5-6.8-13.5-15.75 0-8.75 5.45-14.75 11.95-14.75 4.85 0 8.1 2.6 8.7 7.3l4.25-.55C239.15 4 233.8.35 227.65.35c-8.8 0-16.75 6.9-16.75 18.5 0 11.15 7.65 17.8 16.25 17.8 6 0 12-3.2 12.95-10.55zM267.6.35c-6.4 0-10 4.3-10 8.5 0 3.55 2.3 6.65 5.9 8.95l4.35 2.7c4.35 2.7 6.15 4.65 6.15 7.8 0 3.45-2.7 6.25-6.75 6.25-5.55 0-7.15-3.7-7.25-8.15l-4.15.5c-.15 5.5 3.75 9.7 10.65 9.7 6 0 11.3-3.85 11.3-9.25 0-4.5-3.1-6.9-7.25-9.5l-3.7-2.3c-3.7-2.25-5.6-4.5-5.6-7.5 0-3.05 1.9-5.65 5.7-5.65 4.25 0 5.8 3.2 5.85 6.35l4.15-.5c0-4.25-3.6-7.9-9.35-7.9z" fill="#222" fill-rule="evenodd"/></svg>
