<svg viewBox="0 0 205 37" xmlns="http://www.w3.org/2000/svg" height="37" role="presentation"><path d="M6.45 21.05H3.8V36H.15V1h8.7c6.2 0 11 2.9 11 9.35 0 6.85-6.45 10.7-13.4 10.7zM8.2 3.25H3.8V18.8h2.7c5.9 0 9.35-3.4 9.35-8.1 0-5-3.05-7.45-7.65-7.45zM52.55.35c9.15 0 17 6.9 17 18.3 0 10.95-8.4 18-17.35 18-9.15 0-17-6.95-17-18.35C35.2 7.4 43.6.35 52.55.35zM51.7 2.6c-7.1 0-12.35 6-12.35 15.35 0 10.05 6.3 16.4 13.5 16.4 7.15 0 12.55-5.9 12.55-15.3C65.4 8.9 59.05 2.6 51.7 2.6zM97 37l7.35-17.1L111.4 37l15.45-36h-2.75l-12.05 28.25-5.9-13.75L112.4 1h-2.7l-4.9 11.3L100.05 1H96.3l6.6 15.75-5.3 12.45L85.8 1h-3.9L97 37zm46.25-1h18.4v-2.55H146.9V18.7h11.8v-2.4h-11.8V3.55h14.35V1h-18v35zm61.45 0h-4.5l-10.75-15.15c-1.05.15-1.85.2-2.95.2-.5 0-.7 0-2.2-.05v15h-3.65V1h8.05c6.25 0 11.2 2.75 11.2 9.3 0 4.65-2.9 7.85-6.75 9.5L204.7 36zM187.95 3.25h-3.65V18.8c1.25.05 1.8.05 2.2.05 6.1 0 9.35-3.6 9.35-8.15 0-4.9-3.05-7.45-7.9-7.45z" fill="#222" fill-rule="evenodd"/></svg>
