<svg viewBox="0 0 545 29" xmlns="http://www.w3.org/2000/svg" height="28" role="presentation"><path d="M5.71 16.638H3.696V28H.922V1.4h6.612c4.712 0 8.36 2.204 8.36 7.106 0 5.206-4.902 8.132-10.184 8.132zM7.04 3.11H3.696v11.818h2.052c4.484 0 7.106-2.584 7.106-6.156 0-3.8-2.318-5.662-5.814-5.662zM36.32.64L47.872 28h-2.964l-3.648-8.626H30.126L26.288 28h-2.052L36.32.64zm-.456 5.89l-4.94 11.058h9.614L35.864 6.53zM79.204 28h-3.42l-8.17-11.514c-.798.114-1.406.152-2.242.152-.38 0-.532 0-1.672-.038V28h-2.774V1.4h6.118c4.75 0 8.512 2.09 8.512 7.068 0 3.534-2.204 5.966-5.13 7.22L79.204 28zM66.474 3.11H63.7v11.818c.95.038 1.368.038 1.672.038 4.636 0 7.106-2.736 7.106-6.194 0-3.724-2.318-5.662-6.004-5.662zm21.338.228h8.702V28h2.736V3.338h8.702V1.4h-20.14v1.938zM121.424 28h2.774V1.4h-2.774V28zm19.362 0h13.984v-1.938h-11.21v-11.21h8.968v-1.824h-8.968v-9.69h10.906V1.4h-13.68V28zM176.336.906c-4.864 0-7.6 3.268-7.6 6.46 0 2.698 1.748 5.054 4.484 6.802l3.306 2.052c3.306 2.052 4.674 3.534 4.674 5.928 0 2.622-2.052 4.75-5.13 4.75-4.218 0-5.434-2.812-5.51-6.194l-3.154.38c-.114 4.18 2.85 7.372 8.094 7.372 4.56 0 8.588-2.926 8.588-7.03 0-3.42-2.356-5.244-5.51-7.22l-2.812-1.748c-2.812-1.71-4.256-3.42-4.256-5.7 0-2.318 1.444-4.294 4.332-4.294 3.23 0 4.408 2.432 4.446 4.826l3.154-.38c0-3.23-2.736-6.004-7.106-6.004zm40.816 27.55c-4.56 0-7.22-3.002-7.22-6.65 0-3.724 2.774-6.688 7.448-7.98l-.266-.304c-1.71-1.938-2.926-3.838-2.926-6.346 0-3.458 2.698-6.27 6.954-6.27 3.838 0 6.688 2.356 6.688 6.156 0 3.23-2.85 5.928-7.182 6.726l5.13 5.434c1.444-1.292 3.724-2.546 6.802-2.546.228 0 .456 0 .684.038v2.85h-7.144L234.062 28h-3.458l-5.776-6.232c-.874 4.104-3.952 6.688-7.676 6.688zm.684-2.508c2.47 0 5.206-1.482 6.574-4.56l-6.536-7.03c-3.496 1.216-5.206 3.914-5.206 6.536 0 3.154 2.204 5.054 5.168 5.054zm-1.14-19.19c0 2.09.874 3.648 3.268 6.27l.266.304c3.116-.95 5.054-3.762 5.054-6.46 0-3.306-2.09-4.75-4.37-4.75-2.584 0-4.218 2.204-4.218 4.636zM279.59 28h-3.42L268 16.486c-.798.114-1.406.152-2.242.152-.38 0-.532 0-1.672-.038V28h-2.774V1.4h6.118c4.75 0 8.512 2.09 8.512 7.068 0 3.534-2.204 5.966-5.13 7.22L279.59 28zM266.86 3.11h-2.774v11.818c.95.038 1.368.038 1.672.038 4.636 0 7.106-2.736 7.106-6.194 0-3.724-2.318-5.662-6.004-5.662zM292.872 28h13.984v-1.938h-11.21v-11.21h8.968v-1.824h-8.968v-9.69h10.906V1.4h-13.68V28zm28.824 0V1.4h8.246c6.574 0 13.528 3.534 13.528 13.148 0 9.044-7.714 13.452-14.098 13.452h-7.676zm7.22-24.89h-4.446v23.18h4.75c6.194 0 11.096-3.648 11.096-11.362 0-6.84-3.914-11.818-11.4-11.818zm62.324 17.366c-1.9 3.382-5.282 5.358-9.12 5.358-5.89 0-10.26-5.168-10.26-11.97 0-6.65 4.142-11.21 9.082-11.21 3.686 0 6.156 1.976 6.612 5.548l3.23-.418c-.266-4.104-4.332-6.878-9.006-6.878-6.688 0-12.73 5.244-12.73 14.06 0 8.474 5.814 13.528 12.35 13.528 4.56 0 9.12-2.432 9.842-8.018zM413.756.64L425.308 28h-2.964l-3.648-8.626h-11.134L403.724 28h-2.052L413.756.64zm-.456 5.89l-4.94 11.058h9.614L413.3 6.53zM456.64 28h-3.42l-8.17-11.514c-.798.114-1.406.152-2.242.152-.38 0-.532 0-1.672-.038V28h-2.774V1.4h6.118c4.75 0 8.512 2.09 8.512 7.068 0 3.534-2.204 5.966-5.13 7.22L456.64 28zM443.91 3.11h-2.774v11.818c.95.038 1.368.038 1.672.038 4.636 0 7.106-2.736 7.106-6.194 0-3.724-2.318-5.662-6.004-5.662zm30.8 13.528h-2.014V28h-2.774V1.4h6.612c4.712 0 8.36 2.204 8.36 7.106 0 5.206-4.902 8.132-10.184 8.132zm1.33-13.528h-3.344v11.818h2.052c4.484 0 7.106-2.584 7.106-6.156 0-3.8-2.318-5.662-5.814-5.662zM498.974 28h13.984v-1.938h-11.21v-11.21h8.968v-1.824h-8.968v-9.69h10.906V1.4h-13.68V28zm25.708-24.662h8.702V28h2.736V3.338h8.702V1.4h-20.14v1.938z" fill="#222" fill-rule="evenodd"/></svg>
