<svg viewBox="0 0 533 29" xmlns="http://www.w3.org/2000/svg" height="28" role="presentation"><path d="M9.792.906c-4.864 0-7.6 3.268-7.6 6.46 0 2.698 1.748 5.054 4.484 6.802l3.306 2.052c3.306 2.052 4.674 3.534 4.674 5.928 0 2.622-2.052 4.75-5.13 4.75-4.218 0-5.434-2.812-5.51-6.194l-3.154.38c-.114 4.18 2.85 7.372 8.094 7.372 4.56 0 8.588-2.926 8.588-7.03 0-3.42-2.356-5.244-5.51-7.22l-2.812-1.748c-2.812-1.71-4.256-3.42-4.256-5.7 0-2.318 1.444-4.294 4.332-4.294 3.23 0 4.408 2.432 4.446 4.826l3.154-.38c0-3.23-2.736-6.004-7.106-6.004zM32.27 28h13.984v-1.938h-11.21v-11.21h8.968v-1.824h-8.968v-9.69H45.95V1.4H32.27V28zM59.84 1.4l8.246 12.236L58.016 28h2.47l8.778-12.616L77.662 28h3.382L70.936 13.066 79.03 1.4h-2.432l-6.84 9.918L63.184 1.4H59.84zm52.356 27.056c-4.56 0-7.22-3.002-7.22-6.65 0-3.724 2.774-6.688 7.448-7.98l-.266-.304c-1.71-1.938-2.926-3.838-2.926-6.346 0-3.458 2.698-6.27 6.954-6.27 3.838 0 6.688 2.356 6.688 6.156 0 3.23-2.85 5.928-7.182 6.726l5.13 5.434c1.444-1.292 3.724-2.546 6.802-2.546.228 0 .456 0 .684.038v2.85h-7.144L129.106 28h-3.458l-5.776-6.232c-.874 4.104-3.952 6.688-7.676 6.688zm.684-2.508c2.47 0 5.206-1.482 6.574-4.56l-6.536-7.03c-3.496 1.216-5.206 3.914-5.206 6.536 0 3.154 2.204 5.054 5.168 5.054zm-1.14-19.19c0 2.09.874 3.648 3.268 6.27l.266.304c3.116-.95 5.054-3.762 5.054-6.46 0-3.306-2.09-4.75-4.37-4.75-2.584 0-4.218 2.204-4.218 4.636zM174.634 28h-3.42l-8.17-11.514c-.798.114-1.406.152-2.242.152-.38 0-.532 0-1.672-.038V28h-2.774V1.4h6.118c4.75 0 8.512 2.09 8.512 7.068 0 3.534-2.204 5.966-5.13 7.22L174.634 28zm-12.73-24.89h-2.774v11.818c.95.038 1.368.038 1.672.038 4.636 0 7.106-2.736 7.106-6.194 0-3.724-2.318-5.662-6.004-5.662zM187.916 28H201.9v-1.938h-11.21v-11.21h8.968v-1.824h-8.968v-9.69h10.906V1.4h-13.68V28zm28.824 0h14.06v-1.976h-11.286V1.4h-2.774V28zM253.392.64L264.944 28h-2.964l-3.648-8.626h-11.134L243.36 28h-2.052L253.392.64zm-.456 5.89l-4.94 11.058h9.614L252.936 6.53zm19.324-3.192h8.702V28h2.736V3.338h8.702V1.4h-20.14v1.938zM305.872 28h2.774V1.4h-2.774V28zM336.406.906c6.954 0 12.92 5.244 12.92 13.908 0 8.322-6.384 13.68-13.186 13.68-6.954 0-12.92-5.282-12.92-13.946 0-8.284 6.384-13.642 13.186-13.642zm-.646 1.71c-5.396 0-9.386 4.56-9.386 11.666 0 7.638 4.788 12.464 10.26 12.464 5.434 0 9.538-4.484 9.538-11.628 0-7.714-4.826-12.502-10.412-12.502zM363.9 28h2.09V7.024l19.722 21.736V1.4h-2.09v20.938L363.9.64V28zM409.216.906c-4.864 0-7.6 3.268-7.6 6.46 0 2.698 1.748 5.054 4.484 6.802l3.306 2.052c3.306 2.052 4.674 3.534 4.674 5.928 0 2.622-2.052 4.75-5.13 4.75-4.218 0-5.434-2.812-5.51-6.194l-3.154.38c-.114 4.18 2.85 7.372 8.094 7.372 4.56 0 8.588-2.926 8.588-7.03 0-3.42-2.356-5.244-5.51-7.22l-2.812-1.748c-2.812-1.71-4.256-3.42-4.256-5.7 0-2.318 1.444-4.294 4.332-4.294 3.23 0 4.408 2.432 4.446 4.826l3.154-.38c0-3.23-2.736-6.004-7.106-6.004zM450.124 28h2.774V1.4h-2.774v11.97h-15.656V1.4h-2.774V28h2.774V15.232h15.656V28zm19.362 0h2.774V1.4h-2.774V28zm24.15-11.362h-2.014V28h-2.774V1.4h6.612c4.712 0 8.36 2.204 8.36 7.106 0 5.206-4.902 8.132-10.184 8.132zm1.33-13.528h-3.344v11.818h2.052c4.484 0 7.106-2.584 7.106-6.156 0-3.8-2.318-5.662-5.814-5.662zm29.85-2.204c-4.864 0-7.6 3.268-7.6 6.46 0 2.698 1.748 5.054 4.484 6.802l3.306 2.052c3.306 2.052 4.674 3.534 4.674 5.928 0 2.622-2.052 4.75-5.13 4.75-4.218 0-5.434-2.812-5.51-6.194l-3.154.38c-.114 4.18 2.85 7.372 8.094 7.372 4.56 0 8.588-2.926 8.588-7.03 0-3.42-2.356-5.244-5.51-7.22l-2.812-1.748c-2.812-1.71-4.256-3.42-4.256-5.7 0-2.318 1.444-4.294 4.332-4.294 3.23 0 4.408 2.432 4.446 4.826l3.154-.38c0-3.23-2.736-6.004-7.106-6.004z" fill="#222" fill-rule="evenodd"/></svg>
