<svg viewBox="0 0 360 29" xmlns="http://www.w3.org/2000/svg" height="28" role="presentation"><path d="M9.838.906c-4.864 0-7.6 3.268-7.6 6.46 0 2.698 1.748 5.054 4.484 6.802l3.306 2.052c3.306 2.052 4.674 3.534 4.674 5.928 0 2.622-2.052 4.75-5.13 4.75-4.218 0-5.434-2.812-5.51-6.194l-3.154.38c-.114 4.18 2.85 7.372 8.094 7.372 4.56 0 8.588-2.926 8.588-7.03 0-3.42-2.356-5.244-5.51-7.22l-2.812-1.748c-2.812-1.71-4.256-3.42-4.256-5.7 0-2.318 1.444-4.294 4.332-4.294 3.23 0 4.408 2.432 4.446 4.826l3.154-.38c0-3.23-2.736-6.004-7.106-6.004zm42.656 19.57c-1.9 3.382-5.282 5.358-9.12 5.358-5.89 0-10.26-5.168-10.26-11.97 0-6.65 4.142-11.21 9.082-11.21 3.686 0 6.156 1.976 6.612 5.548l3.23-.418C51.772 3.68 47.706.906 43.032.906c-6.688 0-12.73 5.244-12.73 14.06 0 8.474 5.814 13.528 12.35 13.528 4.56 0 9.12-2.432 9.842-8.018zM66.878 28h2.774V1.4h-2.774V28zm19.362 0h13.984v-1.938h-11.21v-11.21h8.968v-1.824h-8.968v-9.69H99.92V1.4H86.24V28zm28.824 0h2.09V7.024l19.722 21.736V1.4h-2.09v20.938L115.064.64V28zm58.578-7.524c-1.9 3.382-5.282 5.358-9.12 5.358-5.89 0-10.26-5.168-10.26-11.97 0-6.65 4.142-11.21 9.082-11.21 3.686 0 6.156 1.976 6.612 5.548l3.23-.418C172.92 3.68 168.854.906 164.18.906c-6.688 0-12.73 5.244-12.73 14.06 0 8.474 5.814 13.528 12.35 13.528 4.56 0 9.12-2.432 9.842-8.018zM188.026 28h13.984v-1.938H190.8v-11.21h8.968v-1.824H190.8v-9.69h10.906V1.4h-13.68V28zM241.04.906c6.954 0 12.92 5.244 12.92 13.908 0 8.322-6.384 13.68-13.186 13.68-6.954 0-12.92-5.282-12.92-13.946 0-8.284 6.384-13.642 13.186-13.642zm-.646 1.71c-5.396 0-9.386 4.56-9.386 11.666 0 7.638 4.788 12.464 10.26 12.464 5.434 0 9.538-4.484 9.538-11.628 0-7.714-4.826-12.502-10.412-12.502zM268.534 28h2.774V14.852h8.968v-1.824h-8.968v-9.69h10.906V1.4h-13.68V28zm40.55-9.462c0 7.22 4.256 9.956 9.766 9.956 6.004 0 9.88-3.382 9.88-11.172V1.4h-2.09v16.264c0 6.156-2.964 8.55-7.41 8.55-5.434 0-7.41-3.04-7.41-9.158V1.4h-2.736v17.138zM351.816.906c-4.864 0-7.6 3.268-7.6 6.46 0 2.698 1.748 5.054 4.484 6.802l3.306 2.052c3.306 2.052 4.674 3.534 4.674 5.928 0 2.622-2.052 4.75-5.13 4.75-4.218 0-5.434-2.812-5.51-6.194l-3.154.38c-.114 4.18 2.85 7.372 8.094 7.372 4.56 0 8.588-2.926 8.588-7.03 0-3.42-2.356-5.244-5.51-7.22l-2.812-1.748c-2.812-1.71-4.256-3.42-4.256-5.7 0-2.318 1.444-4.294 4.332-4.294 3.23 0 4.408 2.432 4.446 4.826l3.154-.38c0-3.23-2.736-6.004-7.106-6.004z" fill="#222" fill-rule="evenodd"/></svg>
