<svg viewBox="0 0 319 37" xmlns="http://www.w3.org/2000/svg" height="37" role="presentation"><path d="M12.35.35c-6.4 0-10 4.3-10 8.5 0 3.55 2.3 6.65 5.9 8.95l4.35 2.7c4.35 2.7 6.15 4.65 6.15 7.8 0 3.45-2.7 6.25-6.75 6.25-5.55 0-7.15-3.7-7.25-8.15l-4.15.5c-.15 5.5 3.75 9.7 10.65 9.7 6 0 11.3-3.85 11.3-9.25 0-4.5-3.1-6.9-7.25-9.5l-3.7-2.3C7.9 13.3 6 11.05 6 8.05 6 5 7.9 2.4 11.7 2.4c4.25 0 5.8 3.2 5.85 6.35l4.15-.5c0-4.25-3.6-7.9-9.35-7.9zM65.65 36h3.65V1h-3.65v15.75h-20.6V1H41.4v35h3.65V19.2h20.6V36zM105.3.35c9.15 0 17 6.9 17 18.3 0 10.95-8.4 18-17.35 18-9.15 0-17-6.95-17-18.35C87.95 7.4 96.35.35 105.3.35zm-.85 2.25c-7.1 0-12.35 6-12.35 15.35 0 10.05 6.3 16.4 13.5 16.4 7.15 0 12.55-5.9 12.55-15.3 0-10.15-6.35-16.45-13.7-16.45zm42.8 18.45h-2.65V36h-3.65V1h8.7c6.2 0 11 2.9 11 9.35 0 6.85-6.45 10.7-13.4 10.7zM149 3.25h-4.4V18.8h2.7c5.9 0 9.35-3.4 9.35-8.1 0-5-3.05-7.45-7.65-7.45zm35.95 17.8h-2.65V36h-3.65V1h8.7c6.2 0 11 2.9 11 9.35 0 6.85-6.45 10.7-13.4 10.7zm1.75-17.8h-4.4V18.8h2.7c5.9 0 9.35-3.4 9.35-8.1 0-5-3.05-7.45-7.65-7.45zM216.35 36H220V1h-3.65v35zm24.95 0h2.75V8.4L270 37V1h-2.75v27.55L241.3 0v36zm77.2 0V20.15l-3.65.45v9.05c-2.1 2.3-5.25 3.75-9.2 3.75-6.8 0-13.3-6-13.3-15.55 0-9.65 5.65-15.2 12.25-15.2 5.5 0 8.5 3.3 8.95 7.3l4.25-.55C317.1 4 312.55.35 305.25.35c-7.65 0-16.6 6.4-16.6 18.2 0 11.5 7.4 18.1 14.9 18.1 5.35 0 8.9-2.45 11.4-6V36h3.55z" fill="#222" fill-rule="evenodd"/></svg>
