<svg viewBox="0 0 177 37" xmlns="http://www.w3.org/2000/svg" height="37" role="presentation"><path d="M12.2.35c-6.4 0-10 4.3-10 8.5 0 3.55 2.3 6.65 5.9 8.95l4.35 2.7c4.35 2.7 6.15 4.65 6.15 7.8 0 3.45-2.7 6.25-6.75 6.25-5.55 0-7.15-3.7-7.25-8.15l-4.15.5C.3 32.4 4.2 36.6 11.1 36.6c6 0 11.3-3.85 11.3-9.25 0-4.5-3.1-6.9-7.25-9.5l-3.7-2.3c-3.7-2.25-5.6-4.5-5.6-7.5 0-3.05 1.9-5.65 5.7-5.65 4.25 0 5.8 3.2 5.85 6.35l4.15-.5c0-4.25-3.6-7.9-9.35-7.9zm24.45 3.2H48.1V36h3.6V3.55h11.45V1h-26.5v2.55zM89.05 36h3.65V20.5L105.9 1h-3.2L91.35 17.65 80.1 1h-4.4l13.35 19.5V36zM122 36h18.5v-2.6h-14.85V1H122v35zm36.25 0h18.4v-2.55H161.9V18.7h11.8v-2.4h-11.8V3.55h14.35V1h-18v35z" fill="#222" fill-rule="evenodd"/></svg>
