<svg viewBox="0 0 188 37" xmlns="http://www.w3.org/2000/svg" height="37" role="presentation"><path d="M15.05 37L30.5 1h-2.75l-12.1 28.15L3.9 1H-.05l15.1 36zm31.85-1h3.65V1H46.9v35zm24.95 0V1H82.7c8.65 0 17.8 4.65 17.8 17.3 0 11.9-10.15 17.7-18.55 17.7h-10.1zm9.5-32.75H75.5v30.5h6.25c8.15 0 14.6-4.8 14.6-14.95 0-9-5.15-15.55-15-15.55zM119.15 36h18.4v-2.55H122.8V18.7h11.8v-2.4h-11.8V3.55h14.35V1h-18v35zM171 .35c9.15 0 17 6.9 17 18.3 0 10.95-8.4 18-17.35 18-9.15 0-17-6.95-17-18.35 0-10.9 8.4-17.95 17.35-17.95zm-.85 2.25c-7.1 0-12.35 6-12.35 15.35 0 10.05 6.3 16.4 13.5 16.4 7.15 0 12.55-5.9 12.55-15.3 0-10.15-6.35-16.45-13.7-16.45z" fill="#222" fill-rule="evenodd"/></svg>
