<svg viewBox="0 0 334 37" xmlns="http://www.w3.org/2000/svg" height="37" role="presentation"><path d="M15.95 37l7.35-17.1L30.35 37 45.8 1h-2.75L31 29.25 25.1 15.5 31.35 1h-2.7l-4.9 11.3L19 1h-3.75l6.6 15.75-5.3 12.45L4.75 1H.85l15.1 36zm45.25-1h18.4v-2.55H64.85V18.7h11.8v-2.4h-11.8V3.55H79.2V1h-18v35zm37.4 0V1h10.85c8.65 0 17.8 4.65 17.8 17.3 0 11.9-10.15 17.7-18.55 17.7H98.6zm9.5-32.75h-5.85v30.5h6.25c8.15 0 14.6-4.8 14.6-14.95 0-9-5.15-15.55-15-15.55zM145.9 36V1h10.85c8.65 0 17.8 4.65 17.8 17.3C174.55 30.2 164.4 36 156 36h-10.1zm9.5-32.75h-5.85v30.5h6.25c8.15 0 14.6-4.8 14.6-14.95 0-9-5.15-15.55-15-15.55zM193.2 36h3.65V1h-3.65v35zm24.95 0h2.75V8.4L246.85 37V1h-2.75v27.55L218.15 0v36zm76.2 0V20.15l-3.65.45v9.05c-2.1 2.3-5.25 3.75-9.2 3.75-6.8 0-13.3-6-13.3-15.55 0-9.65 5.65-15.2 12.25-15.2 5.5 0 8.5 3.3 8.95 7.3l4.25-.55C292.95 4 288.4.35 281.1.35c-7.65 0-16.6 6.4-16.6 18.2 0 11.5 7.4 18.1 14.9 18.1 5.35 0 8.9-2.45 11.4-6V36h3.55zM323.6.35c-6.4 0-10 4.3-10 8.5 0 3.55 2.3 6.65 5.9 8.95l4.35 2.7c4.35 2.7 6.15 4.65 6.15 7.8 0 3.45-2.7 6.25-6.75 6.25-5.55 0-7.15-3.7-7.25-8.15l-4.15.5c-.15 5.5 3.75 9.7 10.65 9.7 6 0 11.3-3.85 11.3-9.25 0-4.5-3.1-6.9-7.25-9.5l-3.7-2.3c-3.7-2.25-5.6-4.5-5.6-7.5 0-3.05 1.9-5.65 5.7-5.65 4.25 0 5.8 3.2 5.85 6.35l4.15-.5c0-4.25-3.6-7.9-9.35-7.9z" fill="#222" fill-rule="evenodd"/></svg>
