<svg viewBox="0 0 175 37" xmlns="http://www.w3.org/2000/svg" height="37" role="presentation"><path d="M15.25 37l7.35-17.1L29.65 37 45.1 1h-2.75L30.3 29.25 24.4 15.5 30.65 1h-2.7l-4.9 11.3L18.3 1h-3.75l6.6 15.75-5.3 12.45L4.05 1H.15l15.1 36zM73.95.35c9.15 0 17 6.9 17 18.3 0 10.95-8.4 18-17.35 18-9.15 0-17-6.95-17-18.35C56.6 7.4 65 .35 73.95.35zM73.1 2.6c-7.1 0-12.35 6-12.35 15.35 0 10.05 6.3 16.4 13.5 16.4 7.15 0 12.55-5.9 12.55-15.3C86.8 8.9 80.45 2.6 73.1 2.6zM133.65 36h-4.5L118.4 20.85c-1.05.15-1.85.2-2.95.2-.5 0-.7 0-2.2-.05v15h-3.65V1h8.05c6.25 0 11.2 2.75 11.2 9.3 0 4.65-2.9 7.85-6.75 9.5L133.65 36zM116.9 3.25h-3.65V18.8c1.25.05 1.8.05 2.2.05 6.1 0 9.35-3.6 9.35-8.15 0-4.9-3.05-7.45-7.9-7.45zM150.6 36h3.65V22.6l3.85-4.4 12 17.8h4.4l-13.95-20.55L173.35 1h-3.45l-15.65 17.75V1h-3.65v35z" fill="#222" fill-rule="evenodd"/></svg>
